<svg xmlns="http://www.w3.org/2000/svg" xmlns:xlink="http://www.w3.org/1999/xlink" width="22" height="23" viewBox="0 0 22 23">
    <defs>
        <path id="47c9kgerla" d="M0.041 0.681L22 0.681 22 22.688 0.041 22.688z"/>
    </defs>
    <g fill="none" fill-rule="evenodd">
        <g>
            <g transform="translate(-1267 -843) translate(1267 843)">
                <mask id="p45xdkju7b" fill="#fff">
                    <use xlink:href="#47c9kgerla"/>
                </mask>
                <path fill="#CD4C00" d="M22 21.313V8.938c0-.76-.615-1.376-1.375-1.376h-6.188v1.385h5.35c.459 0 .831.372.831.831V20.45c0 .46-.372.832-.832.832l-17.58.02c-.46 0-.832-.371-.832-.83V9.778c0-.459.373-.83.832-.83h5.38l-.002-1.386H1.375C.615 7.563 0 8.178 0 8.938v12.376c0 .76.615 1.375 1.375 1.375h19.25c.76 0 1.375-.616 1.375-1.375zM7.79 12.124c-.269-.268-.704-.268-.972 0-.134.134-.201.31-.201.486s.067.352.2.486l4.169 4.06 4.168-4.06c.269-.268.269-.703 0-.972-.268-.268-.703-.268-.972 0l-2.487 2.487V1.368c0-.38-.308-.687-.687-.687-.38 0-.688.307-.688.687v13.287l-2.53-2.53z" mask="url(#p45xdkju7b)"/>
            </g>
        </g>
    </g>
</svg>
