<?xml version="1.0" encoding="UTF-8"?>
<svg width="22px" height="23px" viewBox="0 0 22 23" version="1.1" xmlns="http://www.w3.org/2000/svg" xmlns:xlink="http://www.w3.org/1999/xlink">
    <title>Shape</title>
    <g id="Page-1" stroke="none" stroke-width="1" fill="none" fill-rule="evenodd">
        <g id="download-icon" fill="#FFFFFF" fill-rule="nonzero">
            <path d="M22,21.313 L22,8.938 C22,8.178 21.385,7.562 20.625,7.562 L14.437,7.562 L14.437,8.947 L19.787,8.947 C20.246,8.947 20.618,9.319 20.618,9.778 L20.618,20.45 C20.618,20.91 20.246,21.282 19.786,21.282 L2.206,21.302 C1.746,21.302 1.374,20.931 1.374,20.472 L1.374,9.778 C1.374,9.319 1.747,8.948 2.206,8.948 L7.586,8.948 L7.584,7.562 L1.375,7.562 C0.615,7.563 0,8.178 0,8.938 L0,21.314 C0,22.074 0.615,22.689 1.375,22.689 L20.625,22.689 C21.385,22.689 22,22.073 22,21.314 L22,21.313 Z M7.79,12.124 C7.521,11.856 7.086,11.856 6.818,12.124 C6.684,12.258 6.617,12.434 6.617,12.61 C6.617,12.786 6.684,12.962 6.817,13.096 L10.986,17.156 L15.154,13.096 C15.423,12.828 15.423,12.393 15.154,12.124 C14.886,11.856 14.451,11.856 14.182,12.124 L11.695,14.611 L11.695,1.368 C11.695,0.988 11.387,0.681 11.008,0.681 C10.628,0.681 10.32,0.988 10.32,1.368 L10.32,14.655 L7.79,12.125 L7.79,12.124 Z" id="Shape"></path>
        </g>
    </g>
</svg>