<svg height='100px' width='100px'  fill="#cd4c00" xmlns="http://www.w3.org/2000/svg" xmlns:xlink="http://www.w3.org/1999/xlink" version="1.1" x="0px" y="0px" viewBox="0 0 64 64" style="enable-background:new 0 0 64 64;" xml:space="preserve"><path d="M55.9,12.3c-0.4-0.5-0.9-1.1-1.4-1.6C48.9,4.7,40.9,1,32,1S15.1,4.7,9.5,10.7c-0.5,0.5-0.9,1-1.4,1.6C3.7,17.7,1,24.5,1,32  s2.7,14.3,7.1,19.7c0.5,0.5,0.9,1.1,1.4,1.6c5.7,6,13.7,9.7,22.5,9.7s16.9-3.7,22.5-9.7c0.5-0.5,1-1,1.4-1.6  C60.3,46.3,63,39.5,63,32S60.3,17.7,55.9,12.3z M61,31H48c-0.1-5.4-0.8-10.3-2.1-14.6c3.1-0.8,5.9-1.8,8.3-3.1  C58.2,18.1,60.8,24.3,61,31z M33,3.1c4.1,0.6,7.8,5.2,10.2,11.8C40,15.5,36.6,15.9,33,16V3.1z M31,3.1V16c-3.6-0.1-7-0.5-10.2-1.1  C23.2,8.3,26.9,3.7,31,3.1z M20.1,16.8c3.3,0.7,7,1.1,10.9,1.2v13H18C18.1,25.9,18.9,21,20.1,16.8z M31,33v13  c-3.9,0.1-7.5,0.5-10.9,1.2c-1.3-4.2-2-9-2.1-14.2H31z M31,48v12.9c-4.1-0.6-7.8-5.2-10.2-11.8C24,48.5,27.4,48.1,31,48z M33,60.9  V48c3.6,0.1,7,0.5,10.2,1.1C40.8,55.7,37.1,60.3,33,60.9z M43.9,47.2c-3.3-0.7-7-1.1-10.9-1.2V33h13C45.9,38.1,45.1,43,43.9,47.2z   M33,31V18c3.9-0.1,7.5-0.5,10.9-1.2c1.3,4.2,2,9,2.1,14.2H33z M38.8,3.8c5.4,1.3,10.2,4.1,13.9,7.9c-2.2,1.1-4.7,2-7.4,2.7  C43.6,9.8,41.4,6.1,38.8,3.8C38.7,3.8,38.8,3.8,38.8,3.8z M25.3,3.8C25.3,3.8,25.3,3.8,25.3,3.8c-2.6,2.3-4.9,6-6.5,10.6  c-2.8-0.7-5.3-1.6-7.4-2.7C15.1,7.9,19.9,5.1,25.3,3.8z M9.9,13.3c2.4,1.2,5.2,2.3,8.3,3.1c-1.3,4.3-2,9.3-2.1,14.6H3  C3.3,24.3,5.8,18.1,9.9,13.3z M3,33h13c0.1,5.4,0.8,10.3,2.1,14.6c-3.1,0.8-5.9,1.8-8.3,3.1C5.8,45.9,3.3,39.7,3,33z M25.3,60.2  c-5.4-1.3-10.2-4.1-13.9-7.9c2.2-1.1,4.7-2,7.4-2.7C20.4,54.2,22.6,57.9,25.3,60.2C25.3,60.2,25.3,60.2,25.3,60.2z M38.8,60.2  C38.8,60.2,38.7,60.2,38.8,60.2c2.6-2.3,4.9-6,6.5-10.6c2.8,0.7,5.3,1.6,7.4,2.7C48.9,56.1,44.1,58.9,38.8,60.2z M54.1,50.7  c-2.4-1.2-5.2-2.3-8.3-3.1c1.3-4.3,2-9.3,2.1-14.6h13C60.8,39.7,58.2,45.9,54.1,50.7z"></path></svg>