<svg height='100px' width='100px'  fill="#000000" xmlns="http://www.w3.org/2000/svg" xmlns:xlink="http://www.w3.org/1999/xlink" version="1.1" x="0px" y="0px" viewBox="0 0 100 100" enable-background="new 0 0 100 100" xml:space="preserve"><path fill="#000000" d="M65.663,31.429H34.337c-2.114,0-3.845,1.516-3.845,3.369c0,1.852,1.73,3.368,3.845,3.368h31.326  c2.114,0,3.845-1.517,3.845-3.368C69.508,32.944,67.777,31.429,65.663,31.429z"></path><path fill="#000000" d="M65.663,58.375H34.337c-2.114,0-3.845,1.516-3.845,3.369c0,1.852,1.73,3.369,3.845,3.369h31.326  c2.114,0,3.845-1.517,3.845-3.369C69.508,59.891,67.777,58.375,65.663,58.375z"></path><path fill="#000000" d="M65.663,44.902H34.337c-2.114,0-3.845,1.516-3.845,3.368s1.73,3.368,3.845,3.368h31.326  c2.114,0,3.845-1.516,3.845-3.368S67.777,44.902,65.663,44.902z"></path><path fill="#000000" d="M50,3.27c-24.813,0-45,20.188-45,45s20.187,45,45,45s45-20.188,45-45S74.813,3.27,50,3.27z M50,87.989  c-21.901,0-39.72-17.818-39.72-39.719S28.099,8.551,50,8.551S89.72,26.369,89.72,48.27S71.901,87.989,50,87.989z"></path></svg>