<svg xmlns="http://www.w3.org/2000/svg" width="28" height="28" viewBox="0 0 28 28">
    <g fill="none" fill-rule="evenodd">
        <g fill-rule="nonzero" stroke="#CD4C00" stroke-width="1.5">
            <g>
                <path d="M19.558 15.864l-3.089-3.096c-.615-.614-1.634-.595-2.27.043l-1.556 1.56-.307-.172c-.983-.545-2.328-1.293-3.743-2.713-1.42-1.422-2.167-2.772-2.713-3.758l-.167-.3 1.044-1.046.514-.515c.637-.64.655-1.66.041-2.276L4.223.495C3.61-.12 2.59-.102 1.953.537l-.87.878.023.024c-.292.373-.536.803-.717 1.268-.168.442-.272.863-.32 1.286-.407 3.389 1.138 6.486 5.33 10.688 5.797 5.81 10.468 5.37 10.67 5.35.438-.053.859-.159 1.286-.325.46-.18.889-.424 1.261-.716l.019.017.882-.865c.636-.64.655-1.66.041-2.278z" transform="translate(-932 -810) rotate(16 -2417.34 3747.707)"/>
            </g>
        </g>
    </g>
</svg>
