<svg xmlns="http://www.w3.org/2000/svg" width="15" height="15" viewBox="0 0 15 15">
    <g fill="none" fill-rule="evenodd">
        <g fill="#485E7F">
            <g>
                <path d="M1.875 5.627c0-2.068 1.681-3.75 3.748-3.75 2.066 0 3.747 1.682 3.747 3.75s-1.681 3.75-3.747 3.75c-2.067 0-3.748-1.682-3.748-3.75m12.797 7.696L10.22 8.865c.646-.915 1.026-2.032 1.026-3.238C11.245 2.519 8.728 0 5.623 0S0 2.519 0 5.627c0 3.108 2.518 5.627 5.623 5.627 1.211 0 2.332-.385 3.25-1.037l4.45 4.455c.41.409 1.047.44 1.417.068.372-.37.34-1.009-.068-1.417" transform="translate(-1325 -70) translate(1111 70) translate(214)"/>
            </g>
        </g>
    </g>
</svg>
