<svg xmlns="http://www.w3.org/2000/svg" width="18" height="20" viewBox="0 0 18 20">
    <g fill="none" fill-rule="evenodd">
        <g fill="#CD4C00" fill-rule="nonzero">
            <path d="M1287.067 774.402l-11.535-6.71c-1.818-1.058-4.077.28-4.077 2.419v6.705c0 .608.482 1.1 1.078 1.1.596 0 1.078-.492 1.078-1.1v-6.705c0-.447.472-.728.853-.507l11.536 6.711c.384.223.385.79 0 1.013l-11.536 6.71c-.38.222-.853-.058-.853-.505v-1.579c0-.608-.483-1.1-1.078-1.1-.596 0-1.079.492-1.079 1.1.118.803-.5 2.884 1.357 3.986.429.254.9.382 1.37.382 1.262 0 .88-.238 12.886-7.08 1.836-1.069 1.838-3.771 0-4.84z" transform="translate(-1271 -767)"/>
        </g>
    </g>
</svg>
