<?xml version="1.0" encoding="utf-8"?><svg width="256" height="223" viewBox="0 0 256 223" xmlns="http://www.w3.org/2000/svg" xmlns:xlink="http://www.w3.org/1999/xlink"><view id="arrow" viewBox="238 58 18 18"/><svg width="18" height="18" viewBox="0 0 18 18" x="238" y="58" xmlns="http://www.w3.org/2000/svg"><path d="M8.64 17.316l8.82-8.64L8.64 0 7.236 1.404l6.444 6.3H0v1.944h13.68l-6.444 6.3z" fill="#CD4C00" fill-rule="nonzero"/></svg><view id="arrow-white" viewBox="238 40 18 18"/><svg width="18" height="18" viewBox="0 0 18 18" x="238" y="40" xmlns="http://www.w3.org/2000/svg"><path d="M8.64 17.316l8.82-8.64L8.64 0 7.236 1.404l6.444 6.3H0v1.944h13.68l-6.444 6.3z" fill="#FFF" fill-rule="nonzero"/></svg><view id="contract-icon" viewBox="238 104 13 4"/><svg width="13" height="4" viewBox="0 0 13 4" x="238" y="104" xmlns="http://www.w3.org/2000/svg"><path d="M7.424 3.152h4.824V.704H.152v2.448h4.824z" fill="#CD4C00" fill-rule="nonzero"/></svg><view id="download-icon" viewBox="0 200 22 23"/><svg width="22" height="23" viewBox="0 0 22 23" y="200" xmlns="http://www.w3.org/2000/svg"><defs><path id="da" d="M.041.681H22v22.007H.041z"/></defs><g fill="none" fill-rule="evenodd"><mask id="db" fill="#fff"><use xlink:href="#da"/></mask><path fill="#CD4C00" d="M22 21.313V8.938c0-.76-.615-1.376-1.375-1.376h-6.188v1.385h5.35a.83.83 0 01.831.831V20.45c0 .46-.372.832-.832.832l-17.58.02a.83.83 0 01-.832-.83V9.778a.83.83 0 01.832-.83h5.38l-.002-1.386H1.375A1.376 1.376 0 000 8.938v12.376c0 .76.615 1.375 1.375 1.375h19.25c.76 0 1.375-.616 1.375-1.375zM7.79 12.124a.688.688 0 00-.973.972l4.169 4.06 4.168-4.06a.686.686 0 10-.972-.972l-2.487 2.487V1.368a.687.687 0 10-1.375 0v13.287l-2.53-2.53z" mask="url(#db)"/></g></svg><view id="download-icon-white" viewBox="22 200 22 23"/><svg width="22" height="23" viewBox="0 0 22 23" x="22" y="200" xmlns="http://www.w3.org/2000/svg"><path d="M22 21.313V8.938c0-.76-.615-1.376-1.375-1.376h-6.188v1.385h5.35a.83.83 0 01.831.831V20.45c0 .46-.372.832-.832.832l-17.58.02a.83.83 0 01-.832-.83V9.778a.83.83 0 01.832-.83h5.38l-.002-1.386H1.375A1.376 1.376 0 000 8.938v12.376c0 .76.615 1.375 1.375 1.375h19.25c.76 0 1.375-.616 1.375-1.375v-.001zM7.79 12.124a.688.688 0 00-.973.972l4.169 4.06 4.168-4.06a.686.686 0 10-.972-.972l-2.487 2.487V1.368a.687.687 0 10-1.375 0v13.287l-2.53-2.53v-.001z" fill="#FFF" fill-rule="nonzero"/></svg><view id="dropdown-arrow" viewBox="200 23 38 23"/><svg width="38" height="23" viewBox="0 0 38 23" x="200" y="23" xmlns="http://www.w3.org/2000/svg"><path d="M.5 3.99L19 22.5 37.5 3.99 34.01.5 19 15.519 3.99.5z" fill="#575757" fill-rule="nonzero"/></svg><view id="dropdown-arrow-1" viewBox="238 118 7 10"/><svg width="7" height="10" viewBox="0 0 7 10" x="238" y="118" xmlns="http://www.w3.org/2000/svg"><path d="M1.105.053l5.579 4.973L1.105 10 .053 9.062 4.58 5.026.053.99z" fill="#FFF" fill-rule="evenodd"/></svg><view id="dropdown-arrow-2" viewBox="244 108 7 10"/><svg width="7" height="10" viewBox="0 0 7 10" x="244" y="108" xmlns="http://www.w3.org/2000/svg"><path d="M5.895.053L.316 5.026 5.895 10l1.052-.938L2.42 5.026 6.947.99z" fill="#FFF" fill-rule="evenodd"/></svg><view id="dropdown-arrow-white" viewBox="200 0 38 23"/><svg width="38" height="23" viewBox="0 0 38 23" x="200" xmlns="http://www.w3.org/2000/svg"><path d="M.5 3.99L19 22.5 37.5 3.99 34.01.5 19 15.519 3.99.5z" fill="#FFF" fill-rule="nonzero"/></svg><view id="expand-icon" viewBox="238 91 13 13"/><svg width="13" height="13" viewBox="0 0 13 13" x="238" y="91" xmlns="http://www.w3.org/2000/svg"><path d="M7.424 13V8.152h4.824V5.704H7.424V.856H4.976v4.848H.152v2.448h4.824V13z" fill="#CD4C00" fill-rule="nonzero"/></svg><view id="icon-carrot-left" viewBox="100 100 100 100"/><svg height="100" width="100" fill="#FFF" viewBox="0 0 100 100" x="100" y="100" xmlns="http://www.w3.org/2000/svg"><path d="M5273.1 2400.1v-2c0-2.8-5-4-9.7-4s-9.7 1.3-9.7 4v2c0 1.8.7 3.6 2 4.9l5 4.9c.3.3.4.6.4 1v6.4c0 .4.2.7.6.8l2.9.9c.5.1 1-.2 1-.8v-7.2c0-.4.2-.7.4-1l5.1-5c1.3-1.3 2-3.1 2-4.9zm-9.7-.1c-4.8 0-7.4-1.3-7.5-1.8.1-.5 2.7-1.8 7.5-1.8s7.3 1.3 7.5 1.8c-.2.5-2.7 1.8-7.5 1.8z"/><path d="M5268.4 2410.3c-.6 0-1 .4-1 1s.4 1 1 1h4.3c.6 0 1-.4 1-1s-.4-1-1-1h-4.3zM5272.7 2413.7h-4.3c-.6 0-1 .4-1 1s.4 1 1 1h4.3c.6 0 1-.4 1-1s-.4-1-1-1zM5272.7 2417h-4.3c-.6 0-1 .4-1 1s.4 1 1 1h4.3c.6 0 1-.4 1-1 0-.5-.4-1-1-1zM75.6 43.8L36.9 5.1c-3.4-3.4-9-3.4-12.4 0-3.4 3.4-3.4 9 0 12.4L56.9 50 24.4 82.5c-3.4 3.4-3.4 9 0 12.4 1.7 1.7 4 2.6 6.2 2.6 2.3 0 4.5-.9 6.2-2.6l38.7-38.7c3.5-3.4 3.5-9 .1-12.4z"/></svg><view id="icon-menu-trigger" viewBox="0 0 100 100"/><svg height="100" width="100" viewBox="0 0 100 100" xmlns="http://www.w3.org/2000/svg"><path d="M65.663 31.429H34.337c-2.114 0-3.845 1.516-3.845 3.369 0 1.852 1.73 3.368 3.845 3.368h31.326c2.114 0 3.845-1.517 3.845-3.368 0-1.854-1.731-3.369-3.845-3.369zM65.663 58.375H34.337c-2.114 0-3.845 1.516-3.845 3.369 0 1.852 1.73 3.369 3.845 3.369h31.326c2.114 0 3.845-1.517 3.845-3.369 0-1.853-1.731-3.369-3.845-3.369zM65.663 44.902H34.337c-2.114 0-3.845 1.516-3.845 3.368s1.73 3.368 3.845 3.368h31.326c2.114 0 3.845-1.516 3.845-3.368s-1.731-3.368-3.845-3.368z"/><path d="M50 3.27c-24.813 0-45 20.188-45 45s20.187 45 45 45 45-20.188 45-45-20.187-45-45-45zm0 84.719c-21.901 0-39.72-17.818-39.72-39.719S28.099 8.551 50 8.551 89.72 26.369 89.72 48.27 71.901 87.989 50 87.989z"/></svg><view id="icon_location" viewBox="0 100 100 100"/><svg height="100" width="100" fill="#cd4c00" viewBox="0 0 100 100" y="100" xmlns="http://www.w3.org/2000/svg"><path style="text-indent:0;text-align:start;line-height:normal;text-transform:none;block-progression:tb;marker:none;-inkscape-font-specification:Sans" d="M49.969 6c-13.638-.088-26.2 8.986-29.907 22.75-.837 3.108-1.045 6.165-1.03 9.094.05 10.395 5.634 19.375 11.937 28.093 6.302 8.719 13.402 17.299 17.187 26.688a2 2 0 003.688 0c3.785-9.39 10.885-17.97 17.187-26.688C75.334 57.22 80.917 48.24 80.97 37.844c.014-2.93-.194-5.986-1.031-9.094C76.23 14.986 63.669 5.911 50.03 6h-.062zm0 4a2 2 0 00.062 0c11.869-.102 22.794 7.76 26.032 19.781.71 2.638.92 5.35.906 8.063-.044 8.954-4.999 17.188-11.188 25.75-5.4 7.47-11.536 15.153-15.781 23.75-4.245-8.597-10.382-16.28-15.781-23.75-6.19-8.562-11.144-16.796-11.188-25.75-.013-2.714.196-5.425.907-8.063C27.175 17.76 38.1 9.898 49.968 10zm-.032 13.875c-7.063-.009-12.852 5.758-12.843 12.813.009 7.054 5.811 12.803 12.875 12.812 7.063.01 12.821-5.726 12.812-12.781-.009-7.055-5.78-12.835-12.843-12.844zm0 4a8.835 8.835 0 018.844 8.844c.006 4.894-3.943 8.787-8.843 8.781-4.901-.006-8.838-3.918-8.844-8.813-.006-4.894 3.943-8.818 8.843-8.812z" font-weight="400" color="#000" overflow="visible" font-family="Sans"/></svg><view id="icon_website" viewBox="100 0 100 100"/><svg height="100" width="100" fill="#cd4c00" viewBox="0 0 64 64" x="100" xmlns="http://www.w3.org/2000/svg"><path d="M55.9 12.3c-.4-.5-.9-1.1-1.4-1.6C48.9 4.7 40.9 1 32 1S15.1 4.7 9.5 10.7c-.5.5-.9 1-1.4 1.6C3.7 17.7 1 24.5 1 32s2.7 14.3 7.1 19.7c.5.5.9 1.1 1.4 1.6 5.7 6 13.7 9.7 22.5 9.7s16.9-3.7 22.5-9.7c.5-.5 1-1 1.4-1.6C60.3 46.3 63 39.5 63 32s-2.7-14.3-7.1-19.7zM61 31H48c-.1-5.4-.8-10.3-2.1-14.6 3.1-.8 5.9-1.8 8.3-3.1 4 4.8 6.6 11 6.8 17.7zM33 3.1c4.1.6 7.8 5.2 10.2 11.8-3.2.6-6.6 1-10.2 1.1V3.1zm-2 0V16c-3.6-.1-7-.5-10.2-1.1C23.2 8.3 26.9 3.7 31 3.1zM20.1 16.8c3.3.7 7 1.1 10.9 1.2v13H18c.1-5.1.9-10 2.1-14.2zM31 33v13c-3.9.1-7.5.5-10.9 1.2-1.3-4.2-2-9-2.1-14.2h13zm0 15v12.9c-4.1-.6-7.8-5.2-10.2-11.8 3.2-.6 6.6-1 10.2-1.1zm2 12.9V48c3.6.1 7 .5 10.2 1.1-2.4 6.6-6.1 11.2-10.2 11.8zm10.9-13.7c-3.3-.7-7-1.1-10.9-1.2V33h13c-.1 5.1-.9 10-2.1 14.2zM33 31V18c3.9-.1 7.5-.5 10.9-1.2 1.3 4.2 2 9 2.1 14.2H33zm5.8-27.2c5.4 1.3 10.2 4.1 13.9 7.9-2.2 1.1-4.7 2-7.4 2.7-1.7-4.6-3.9-8.3-6.5-10.6-.1 0 0 0 0 0zm-13.5 0c-2.6 2.3-4.9 6-6.5 10.6-2.8-.7-5.3-1.6-7.4-2.7 3.7-3.8 8.5-6.6 13.9-7.9zM9.9 13.3c2.4 1.2 5.2 2.3 8.3 3.1-1.3 4.3-2 9.3-2.1 14.6H3c.3-6.7 2.8-12.9 6.9-17.7zM3 33h13c.1 5.4.8 10.3 2.1 14.6-3.1.8-5.9 1.8-8.3 3.1-4-4.8-6.5-11-6.8-17.7zm22.3 27.2c-5.4-1.3-10.2-4.1-13.9-7.9 2.2-1.1 4.7-2 7.4-2.7 1.6 4.6 3.8 8.3 6.5 10.6zm13.5 0s-.1 0 0 0c2.6-2.3 4.9-6 6.5-10.6 2.8.7 5.3 1.6 7.4 2.7-3.8 3.8-8.6 6.6-13.9 7.9zm15.3-9.5c-2.4-1.2-5.2-2.3-8.3-3.1 1.3-4.3 2-9.3 2.1-14.6h13c-.1 6.7-2.7 12.9-6.8 17.7z"/></svg><view id="mail-icon" viewBox="44 200 23 16"/><svg width="23" height="16" viewBox="0 0 23 16" x="44" y="200" xmlns="http://www.w3.org/2000/svg"><path d="M21.203 14.256H2.516c-.396 0-1.078-.676-1.078-1.068V2.975l9.592 7.61a.72.72 0 00.94.001l9.592-7.61v10.212c0 .392.038 1.068-.359 1.068M2.516 1.426h18.697L11.5 9.103 1.826 1.457c.221-.04.491-.03.69-.03m20.47.16a.689.689 0 00-.048-.361C22.765.417 22.188 0 21.203 0H2.516C1.646 0 .712.324.267.956c-.03.024-.065.04-.092.07a.7.7 0 00-.152.595C.017 1.676 0 1.725 0 1.783v11.405c0 1.18 1.325 2.495 2.516 2.495h18.687c1.191 0 1.797-1.315 1.797-2.495V1.783c0-.07-.01-.131-.014-.196" fill="#CD4C00" fill-rule="evenodd"/></svg><view id="next-control" viewBox="200 83 37 37"/><svg width="37" height="37" viewBox="0 0 37 37" x="200" y="83" xmlns="http://www.w3.org/2000/svg"><g transform="matrix(-1 0 0 1 37 0)" fill="none" fill-rule="evenodd"><circle cx="18.5" cy="18.5" r="18.5" fill="#485E7F"/><path stroke="#FFF" d="M12.891 18.5l8.188 5.556V12.943l-8.188 5.556z"/></g></svg><view id="next-control-hover" viewBox="200 46 37 37"/><svg width="37" height="37" viewBox="0 0 37 37" x="200" y="46" xmlns="http://www.w3.org/2000/svg"><g transform="matrix(-1 0 0 1 37 0)" fill="none" fill-rule="evenodd"><circle fill="#CD4C00" fill-rule="nonzero" cx="18.5" cy="18.5" r="18.5"/><path stroke="#FFF" d="M12.891 18.5l8.188 5.556V12.943l-8.188 5.556z"/></g></svg><view id="open-arrow-white" viewBox="238 108 6 10"/><svg width="6" height="10" viewBox="0 0 6 10" x="238" y="108" xmlns="http://www.w3.org/2000/svg"><path d="M.952 0L6 5 .952 10 0 9.057 4.096 5 0 .943z" fill="#FFF" fill-rule="evenodd"/></svg><view id="phone-icon" viewBox="200 157 28 28"/><svg width="28" height="28" viewBox="0 0 28 28" x="200" y="157" xmlns="http://www.w3.org/2000/svg"><path d="M21.792 22.13l-2.116-3.828c-.422-.76-1.407-1.022-2.194-.584l-1.926 1.07-.247-.25c-.795-.795-1.882-1.884-2.85-3.64-.973-1.758-1.32-3.261-1.573-4.36l-.077-.334 1.292-.718.636-.353c.788-.44 1.087-1.415.666-2.177L11.287 3.13c-.42-.76-1.405-1.024-2.193-.585l-1.079.604.016.03a5.01 5.01 0 00-1.039 1.02 5.25 5.25 0 00-.662 1.148c-1.325 3.146-.694 6.549 2.178 11.743 3.97 7.183 8.582 8.048 8.782 8.084.435.07.87.084 1.325.042a5.002 5.002 0 001.41-.34l.013.021 1.087-.588c.787-.44 1.087-1.415.667-2.179z" fill-rule="nonzero" stroke="#CD4C00" stroke-width="1.5" fill="none"/></svg><view id="previous-control" viewBox="200 120 37 37"/><svg width="37" height="37" viewBox="0 0 37 37" x="200" y="120" xmlns="http://www.w3.org/2000/svg"><g fill="none" fill-rule="evenodd"><circle cx="18.5" cy="18.5" r="18.5" fill="#485E7F"/><path stroke="#FFF" d="M12.891 18.5l8.188 5.556V12.943l-8.188 5.556z"/></g></svg><view id="search-icon" viewBox="238 76 15 15"/><svg width="15" height="15" viewBox="0 0 15 15" x="238" y="76" xmlns="http://www.w3.org/2000/svg"><path d="M1.875 5.627a3.753 3.753 0 013.748-3.75c2.066 0 3.747 1.682 3.747 3.75s-1.681 3.75-3.747 3.75a3.753 3.753 0 01-3.748-3.75m12.797 7.696L10.22 8.865A5.626 5.626 0 005.623 0 5.625 5.625 0 000 5.627a5.625 5.625 0 005.623 5.627 5.594 5.594 0 003.25-1.037l4.45 4.455c.41.409 1.047.44 1.417.068.372-.37.34-1.009-.068-1.417" fill="#485E7F" fill-rule="evenodd"/></svg><view id="video-icon" viewBox="238 20 18 20"/><svg width="18" height="20" viewBox="0 0 18 20" x="238" y="20" xmlns="http://www.w3.org/2000/svg"><path d="M16.067 7.402L4.532.692C2.714-.366.455.972.455 3.111v6.705c0 .608.482 1.1 1.078 1.1.596 0 1.078-.492 1.078-1.1V3.111c0-.447.472-.728.853-.507L15 9.315a.589.589 0 010 1.013l-11.536 6.71a.57.57 0 01-.853-.505v-1.579c0-.608-.483-1.1-1.078-1.1a1.09 1.09 0 00-1.079 1.1c.118.803-.5 2.884 1.357 3.986.429.254.9.382 1.37.382 1.262 0 .88-.238 12.886-7.08 1.836-1.069 1.838-3.771 0-4.84z" fill="#CD4C00" fill-rule="nonzero"/></svg><view id="video-icon-white" viewBox="238 0 18 20"/><svg width="18" height="20" viewBox="0 0 18 20" x="238" xmlns="http://www.w3.org/2000/svg"><path d="M16.067 7.402L4.532.692C2.714-.366.455.972.455 3.111v6.705c0 .608.482 1.1 1.078 1.1.596 0 1.078-.492 1.078-1.1V3.111c0-.447.472-.728.853-.507L15 9.315a.589.589 0 010 1.013l-11.536 6.71a.57.57 0 01-.853-.505v-1.579c0-.608-.483-1.1-1.078-1.1a1.09 1.09 0 00-1.079 1.1c.118.803-.5 2.884 1.357 3.986.429.254.9.382 1.37.382 1.262 0 .88-.238 12.886-7.08 1.836-1.069 1.838-3.771 0-4.84z" fill="#FFF" fill-rule="nonzero"/></svg></svg>