<svg xmlns="http://www.w3.org/2000/svg" width="23" height="16" viewBox="0 0 23 16">
    <g fill="none" fill-rule="evenodd">
        <g fill="#CD4C00">
            <path d="M951.203 427.256h-18.687c-.396 0-1.078-.676-1.078-1.068v-10.213l9.592 7.61c.134.116.303.175.47.175.167 0 .336-.059.47-.174l9.592-7.61v10.212c0 .392.038 1.068-.359 1.068m-18.687-12.83h18.697l-9.713 7.677-9.674-7.646c.221-.04.491-.03.69-.03m20.47.16c.017-.123 0-.245-.048-.361-.173-.809-.75-1.226-1.735-1.226h-18.687c-.87 0-1.804.324-2.249.956-.03.024-.065.04-.092.07-.148.17-.19.389-.152.595-.006.055-.023.104-.023.162v11.405c0 1.18 1.325 2.495 2.516 2.495h18.687c1.191 0 1.797-1.315 1.797-2.495v-11.405c0-.07-.01-.131-.014-.196" transform="translate(-930 -413)"/>
        </g>
    </g>
</svg>
