<?xml version="1.0" encoding="UTF-8"?>
<svg width="18px" height="20px" viewBox="0 0 18 20" version="1.1" xmlns="http://www.w3.org/2000/svg" xmlns:xlink="http://www.w3.org/1999/xlink">
    <title>Path</title>
    <g id="Page-1" stroke="none" stroke-width="1" fill="none" fill-rule="evenodd">
        <g id="video-icon" fill="#FFFFFF" fill-rule="nonzero">
            <path d="M16.067,7.402 L4.532,0.692 C2.714,-0.366 0.455,0.972 0.455,3.111 L0.455,9.816 C0.455,10.424 0.937,10.916 1.533,10.916 C2.129,10.916 2.611,10.424 2.611,9.816 L2.611,3.111 C2.611,2.664 3.083,2.383 3.464,2.604 L15,9.315 C15.384,9.538 15.385,10.105 15,10.328 L3.464,17.038 C3.084,17.26 2.611,16.98 2.611,16.533 L2.611,14.954 C2.611,14.346 2.128,13.854 1.533,13.854 C0.937,13.854 0.454,14.346 0.454,14.954 C0.572,15.757 -0.046,17.838 1.811,18.94 C2.24,19.194 2.711,19.322 3.181,19.322 C4.443,19.322 4.061,19.084 16.067,12.242 C17.903,11.173 17.905,8.471 16.067,7.402 L16.067,7.402 Z" id="Path"></path>
        </g>
    </g>
</svg>